<svg xmlns="http://www.w3.org/2000/svg" version="1.0" width="100.000000pt" height="80.000000pt" viewBox="0 0 100.000000 280.000000" preserveAspectRatio="xMidYMid meet">

<g transform="translate(0.000000,280.000000) scale(0.100000,-0.100000)" fill="#000000" stroke="none">
<path d="M1206 2489 c-10 -21 -13 -37 -6 -48 5 -10 5 -23 0 -31 -5 -7 -6 -34 -2 -59 7 -54 3 -298 -7 -356 -6 -39 -9 -41 -94 -83 -119 -59 -143 -93 -132 -190 4 -37 7 -79 7 -94 1 -16 6 -28 14 -28 7 0 22 -12 34 -27 19 -25 21 -36 16 -93 -6 -67 -29 -112 -59 -118 -21 -4 -59 115 -50 158 4 23 2 30 -10 30 -10 0 -22 23 -36 70 -12 38 -20 73 -19 77 1 4 -3 17 -9 29 -7 11 -11 29 -11 40 2 28 -53 214 -63 214 -15 0 -10 26 11 53 11 14 54 53 96 86 41 34 68 61 59 61 -25 0 -67 -25 -99 -59 -17 -17 -35 -31 -42 -31 -7 0 -27 -12 -44 -27 -29 -24 -31 -30 -26 -65 4 -26 3 -38 -6 -38 -6 0 -3 -7 8 -15 10 -8 14 -15 7 -15 -8 0 -8 -14 2 -52 8 -28 12 -55 9 -60 -3 -5 -1 -14 4 -21 6 -7 16 -31 23 -55 11 -37 10 -45 -2 -52 -11 -8 -12 -13 -2 -29 17 -27 28 -101 16 -101 -12 0 -49 40 -55 59 -2 8 -22 -9 -52 -44 -27 -31 -43 -55 -35 -54 36 7 60 -14 94 -85 19 -40 35 -78 35 -84 0 -7 7 -30 16 -52 18 -44 63 -75 95 -67 16 4 18 1 13 -21 -10 -42 -15 -45 -38 -24 -11 10 -42 33 -69 51 -37 25 -53 46 -76 96 -34 74 -53 84 -120 60 -24 -8 -45 -14 -46 -13 -1 2 -45 77 -97 168 -90 155 -103 188 -85 217 4 6 3 14 -3 18 -5 3 -10 1 -10 -5 0 -6 -5 -8 -10 -5 -6 4 -8 16 -4 27 5 16 3 20 -10 15 -8 -3 -18 -2 -21 3 -4 6 -1 10 4 10 6 0 11 4 11 9 0 11 -50 11 -72 0 -10 -6 -18 -16 -18 -24 0 -8 -5 -15 -11 -15 -5 0 -8 -4 -4 -10 3 -5 12 -7 20 -3 8 3 15 0 15 -6 0 -6 -4 -11 -10 -11 -5 0 -10 -5 -10 -11 0 -6 6 -9 14 -6 8 3 17 -1 20 -9 3 -8 1 -14 -4 -14 -20 0 -8 -16 23 -30 26 -12 48 -44 122 -180 l91 -165 -43 -41 c-24 -22 -43 -47 -43 -56 0 -8 18 -42 40 -74 24 -36 40 -71 40 -88 l0 -29 -23 21 c-13 12 -29 22 -36 22 -30 0 -253 -176 -292 -232 -20 -28 -20 -30 -3 -56 29 -44 106 -122 121 -122 24 0 90 38 148 85 l55 45 0 -170 c0 -168 0 -170 23 -175 12 -3 353 -4 757 -3 l735 3 3 181 2 182 38 8 c20 4 41 7 45 6 4 -1 16 2 26 7 11 6 21 7 27 1 13 -13 74 10 74 27 0 7 18 20 39 29 41 16 58 52 40 86 -18 33 149 76 179 46 19 -19 15 13 -7 65 -22 50 -41 69 -41 39 0 -29 -28 -49 -139 -97 -101 -45 -126 -52 -134 -37 -2 4 -3 2 -1 -5 3 -14 -40 -26 -44 -13 -6 18 -20 10 -15 -8 3 -15 -10 -25 -68 -50 -39 -18 -76 -32 -80 -32 -11 0 -1 74 17 117 7 17 30 44 52 58 76 50 82 130 7 89 -37 -20 -68 -13 -72 17 -1 8 73 124 165 259 118 173 173 246 188 248 14 2 29 19 44 52 15 33 30 50 44 52 30 4 36 58 7 58 -10 0 -27 3 -37 7 -13 5 -16 3 -11 -10 4 -12 2 -14 -10 -10 -12 5 -15 2 -10 -10 3 -9 2 -17 -3 -17 -6 0 -10 5 -10 12 0 6 -8 4 -19 -6 -11 -10 -18 -23 -15 -29 2 -7 -5 -18 -16 -25 -12 -7 -20 -8 -20 -2 0 5 5 10 10 10 6 0 10 5 10 10 0 6 -8 5 -20 -2 -11 -7 -18 -17 -17 -23 9 -25 -20 -74 -153 -260 -78 -110 -146 -204 -150 -209 -13 -14 -58 2 -65 24 -3 10 1 33 10 51 22 41 8 56 -32 36 -30 -16 -44 -42 -83 -148 -18 -50 -27 -60 -90 -102 -48 -32 -70 -42 -70 -31 0 13 -24 85 -45 138 -7 17 -6 17 16 5 60 -32 164 -17 187 29 17 31 20 131 5 143 -26 22 -5 119 25 119 20 0 52 71 52 114 0 19 -11 39 -33 60 l-33 31 29 107 c26 97 31 107 47 98 25 -13 30 -13 30 5 0 8 -9 15 -20 15 -11 0 -20 5 -20 10 0 6 11 8 26 4 20 -5 25 -3 22 7 -3 8 -12 13 -22 11 -17 -3 -22 13 -7 22 15 10 0 48 -16 42 -8 -3 -19 -6 -24 -6 -5 0 -7 -11 -3 -24 6 -24 -10 -44 -21 -26 -8 13 -35 13 -35 0 0 -5 8 -10 18 -10 24 0 32 -8 25 -26 -4 -10 -10 -11 -25 -3 -11 6 -22 8 -25 5 -8 -8 7 -27 17 -21 22 14 18 -23 -12 -110 -27 -76 -36 -94 -50 -89 -23 7 -84 -20 -96 -43 -13 -25 -21 -113 -11 -113 5 0 9 -11 9 -24 0 -31 -42 -91 -63 -90 -9 1 -17 -2 -17 -8 0 -5 -11 -26 -25 -46 -14 -20 -25 -46 -25 -57 -1 -39 -27 11 -33 64 -8 68 3 103 39 121 24 13 29 22 31 55 8 162 10 151 -22 190 -30 37 -58 55 -148 95 -30 14 -49 30 -52 43 -11 48 -23 322 -14 332 12 12 11 102 -1 110 -7 4 -7 12 0 25 10 19 -13 80 -30 80 -5 0 -16 -14 -24 -31z m-436 -599 c0 -5 -2 -10 -4 -10 -3 0 -8 5 -11 10 -3 6 -1 10 4 10 6 0 11 -4 11 -10z m70 -290 c0 -5 -4 -10 -10 -10 -5 0 -10 5 -10 10 0 6 5 10 10 10 6 0 10 -4 10 -10z m758 -67 c-6 -16 -18 -35 -26 -43 -8 -8 -5 4 7 28 24 47 37 57 19 15z m-774 -30 c3 -16 8 -39 11 -53 3 -14 -3 -2 -15 25 -23 58 -23 55 -11 55 5 0 11 -12 15 -27z m882 -29 c-4 -20 -10 -34 -12 -31 -3 3 -2 21 2 41 3 21 9 35 11 32 3 -3 2 -21 -1 -42z m-603 -16 c-8 -104 -14 -137 -31 -156 -9 -10 -13 -12 -9 -6 5 7 12 53 17 103 7 80 14 111 24 111 2 0 1 -24 -1 -52z m42 43 c3 -5 1 -12 -5 -16 -5 -3 -10 1 -10 9 0 18 6 21 15 7z m195 0 c0 -6 -4 -13 -10 -16 -5 -3 -10 1 -10 9 0 9 5 16 10 16 6 0 10 -4 10 -9z m43 -101 c4 -44 12 -90 18 -103 11 -20 11 -21 -4 -8 -18 14 -24 40 -36 150 -6 57 -5 70 4 57 7 -9 15 -52 18 -96z m287 88 c10 -6 7 -7 -10 -2 -14 3 -32 11 -40 16 -10 6 -7 7 10 2 14 -3 32 -11 40 -16z m-790 -38 c0 -5 -4 -10 -10 -10 -5 0 -10 5 -10 10 0 6 5 10 10 10 6 0 10 -4 10 -10z m850 -4 c0 -3 -4 -8 -10 -11 -5 -3 -10 -1 -10 4 0 6 5 11 10 11 6 0 10 -2 10 -4z m-81 -23 c3 -2 -5 -16 -16 -32 -12 -15 -27 -47 -34 -69 -7 -23 -16 -42 -22 -42 -5 0 -6 10 -2 23 4 12 9 48 12 79 5 56 6 58 32 51 14 -3 28 -7 30 -10z m-344 -23 c4 -6 -22 -10 -69 -10 -44 0 -76 4 -76 10 0 6 30 10 69 10 39 0 73 -4 76 -10z m-405 -77 c0 -19 -18 -16 -30 6 -17 33 -12 46 10 26 11 -10 20 -24 20 -32z m140 -7 c0 -15 -14 -35 -21 -30 -15 9 -10 34 6 34 8 0 15 -2 15 -4z m410 -16 c0 -11 -4 -20 -9 -20 -11 0 -22 26 -14 34 12 12 23 5 23 -14z m-802 -32 c17 -17 15 -64 -4 -82 -21 -22 -50 -20 -74 4 -24 24 -25 38 -4 68 17 24 62 30 82 10z m1252 -110 c0 -14 -21 -8 -51 13 -16 11 -27 25 -24 30 6 9 75 -31 75 -43z m-620 14 c0 -16 -7 -50 -16 -76 -13 -36 -15 -70 -12 -137 4 -68 2 -91 -8 -100 -11 -9 -18 -8 -30 1 -12 11 -14 27 -9 89 6 60 3 92 -14 155 -12 44 -21 83 -21 88 0 4 25 8 55 8 54 0 55 -1 55 -28z m557 -46 c15 -13 25 -27 21 -31 -8 -8 -68 32 -68 46 0 16 18 10 47 -15z m-1074 0 c4 -10 -10 -26 -41 -46 -54 -36 -89 -47 -104 -32 -7 7 5 19 39 37 26 16 57 34 68 41 26 17 32 17 38 0z m-399 -114 c-96 -93 -200 -170 -212 -157 -17 17 256 246 292 245 6 -1 -30 -40 -80 -88z m1436 58 c19 -16 29 -29 22 -30 -21 0 -72 33 -72 47 0 20 13 16 50 -17z m-1250 -95 c0 -5 -20 13 -45 40 -43 48 -45 49 -39 20 8 -37 22 -55 51 -66 31 -11 29 -30 -6 -63 l-28 -27 -17 27 c-10 14 -31 40 -47 57 l-29 30 38 42 37 43 42 -47 c24 -25 43 -50 43 -56z m1208 45 c43 -31 50 -44 32 -55 -11 -7 -70 26 -90 50 -12 14 -6 35 9 35 4 0 27 -14 49 -30z m506 -17 c8 -20 -15 -37 -26 -20 -12 19 -9 37 6 37 8 0 17 -8 20 -17z m-39 -14 c8 -24 7 -24 -23 -33 -30 -10 -43 21 -17 40 25 19 33 18 40 -7z m-1827 -36 c2 -13 20 -37 40 -53 l37 -31 -44 -40 c-24 -21 -47 -39 -51 -39 -5 0 -17 17 -27 38 -11 20 -30 42 -42 48 -36 18 -35 22 10 64 48 43 72 47 77 13z m1287 -90 c16 -9 -10 -12 -135 -12 l-155 0 53 25 c29 14 66 42 83 62 l31 37 51 -50 c29 -27 61 -55 72 -62z m-737 58 c22 -21 60 -46 84 -54 42 -15 38 -15 -127 -16 l-170 -1 52 29 c28 16 67 40 85 55 18 14 33 26 34 26 0 0 19 -18 42 -39z m1148 17 c4 -14 2 -24 -5 -26 -6 -2 -17 -9 -24 -16 -20 -19 -66 -36 -82 -30 -18 7 -20 40 -3 51 15 10 90 42 100 42 4 1 10 -9 14 -21z m-134 -75 c8 -10 0 -13 -36 -13 -44 0 -46 1 -36 21 16 28 54 42 59 20 2 -9 8 -22 13 -28z m-1402 12 l23 -25 -42 0 -42 0 18 25 c10 13 18 25 19 25 0 0 11 -11 24 -25z m-271 -7 c5 -13 23 -36 40 -52 17 -17 31 -33 31 -37 0 -11 -66 -50 -93 -54 -18 -4 -31 5 -58 38 -56 67 -56 77 0 17 45 -49 50 -52 51 -31 0 26 -25 61 -45 61 -6 0 -16 5 -22 11 -9 9 -3 19 25 40 46 34 60 35 71 7z m309 -201 c4 -91 26 -87 30 6 2 37 7 67 12 67 5 0 10 -30 12 -67 4 -93 26 -97 30 -6 3 66 4 68 31 71 l27 3 0 -71 c0 -53 3 -71 13 -68 7 3 13 29 15 71 4 87 20 86 24 0 2 -38 8 -68 13 -68 6 0 11 30 13 68 4 86 20 87 24 0 4 -93 26 -97 30 -6 3 65 4 68 28 68 24 0 25 -3 28 -68 4 -91 26 -87 30 6 4 86 22 88 22 3 0 -59 11 -88 28 -72 3 4 8 36 10 71 4 61 6 65 28 65 23 0 24 -3 24 -71 0 -52 3 -70 13 -67 7 3 13 29 15 71 4 86 20 87 24 2 2 -36 8 -65 13 -65 6 0 11 29 13 65 4 85 20 84 24 -2 4 -93 26 -97 30 -6 3 65 4 68 28 68 24 0 25 -3 28 -68 4 -91 26 -87 30 6 4 87 20 86 24 0 2 -53 6 -68 18 -68 12 0 16 15 18 68 3 64 4 67 27 67 24 0 25 -2 25 -71 0 -52 3 -70 13 -67 7 3 13 29 15 71 4 87 20 86 24 0 2 -38 8 -68 13 -68 6 0 11 30 13 68 4 86 22 88 22 3 0 -60 11 -88 28 -71 4 4 7 34 7 68 0 60 1 62 28 65 l27 3 0 -71 c0 -53 3 -71 13 -68 7 3 13 29 15 71 4 87 20 86 24 0 2 -53 6 -68 18 -68 12 0 16 15 18 68 3 64 4 67 27 67 24 0 25 -2 25 -71 0 -52 3 -70 13 -67 7 3 13 29 15 71 4 87 20 86 24 0 2 -38 8 -68 13 -68 6 0 11 30 13 68 2 37 7 67 12 67 5 0 10 -30 12 -67 2 -53 6 -68 18 -68 12 0 16 16 18 68 l3 68 32 -3 32 -3 3 -107 c3 -105 2 -108 -20 -113 -13 -3 -331 -4 -708 -3 l-685 3 -3 99 c-1 55 0 106 3 113 3 9 17 13 37 11 l33 -3 3 -68z"/>




























</g>
</svg>